<svg id="avc-logo" class="avc-logo" xmlns="http://www.w3.org/2000/svg" viewBox="0 0 240.17 240.17"><defs><style>.cls-1,.cls-3{fill:#fff;}.cls-1,.cls-10,.cls-2,.cls-7,.cls-8,.cls-9{fill-rule:evenodd;}.cls-2{fill:#0d4d94;}.cls-4{fill:#e30613;}.cls-5{fill:#2f3189;}.cls-6{fill:#ef7d00;}.cls-7,.cls-8{fill:#fbecd1;}.cls-10,.cls-8{stroke:#fff;stroke-miterlimit:2.61;}.cls-8{stroke-width:0.84px;}.cls-9{fill:#39384f;}.cls-10{fill:#c18e3b;stroke-width:0.84px;}.cls-11{fill:#1226aa;}</style></defs><path class="cls-1" d="M190,33.85A120.09,120.09,0,1,1,69.91,153.94,120.11,120.11,0,0,1,190,33.85Z" transform="translate(-69.91 -33.85)"/><path class="cls-2" d="M190,36.19A117.75,117.75,0,1,1,72.25,153.94,117.76,117.76,0,0,1,190,36.19Z" transform="translate(-69.91 -33.85)"/><path class="cls-1" d="M190,56.44a97.5,97.5,0,1,1-97.47,97.5A97.5,97.5,0,0,1,190,56.44Z" transform="translate(-69.91 -33.85)"/><path class="cls-3" d="M89.35,203.12l-.77-1.73,1.48-1.47-1.4-3.13-2.07.14-.74-1.67,9.19-.44.74,1.67-6.43,6.63Zm1.8-4.3,2.43-2.37-3.38.24,1,2.13ZM89.85,204l7.71-3.76,1.6,3.28a6.07,6.07,0,0,1,.66,1.89,1.91,1.91,0,0,1-.3,1.26,2.39,2.39,0,0,1-1,.93,2.33,2.33,0,0,1-1.68.19,2.71,2.71,0,0,1-1.45-1.18,4.24,4.24,0,0,1-.25,1.15,9.53,9.53,0,0,1-.81,1.49l-1,1.68L92.32,209l1.13-1.94a12.66,12.66,0,0,0,.74-1.38,1.4,1.4,0,0,0,.09-.62,3,3,0,0,0-.3-.83l-.15-.31-3.22,1.57L89.85,204Zm5.21-.61.56,1.15a6.1,6.1,0,0,0,.78,1.35.89.89,0,0,0,.54.28,1.06,1.06,0,0,0,.65-.13,1,1,0,0,0,.53-.51,1.07,1.07,0,0,0,0-.73c0-.14-.22-.52-.52-1.15l-.6-1.22-2,1Zm-1,8.21,7.27-4.55,1.37,2.2-4.14,4.42,5.78-1.8,1.38,2.21-7.28,4.54-.85-1.36,5.73-3.58-6.63,2.13-.88-1.41,4.82-5-5.72,3.58L94,211.55Zm5.39,8.35,6.76-5.28,3.91,5-1.14.89-2.85-3.64-1.5,1.17,2.65,3.39-1.14.89-2.65-3.39-1.84,1.44,3,3.77-1.14.89-4-5.14Zm5,6.22,6.57-5.51,1.08,1.29L110,228.27l4.39-3.68,1,1.23-6.57,5.52L107.69,230l2.07-6.24-4.29,3.6-1-1.24Zm5.76,6.39,6.27-5.85,1.18,1.27-6.27,5.85-1.18-1.27Zm8.09,7.55-1.4-1.26.75-2-2.55-2.29-1.83,1-1.37-1.23,8.22-4.14,1.36,1.22-3.18,8.67Zm-.1-4.65,1.25-3.16-3,1.6,1.74,1.56Zm.9,5.19,5.28-6.75,1.33,1-.76,6.68,3.52-4.52,1.27,1-5.28,6.75-1.37-1.07.72-6.53-3.44,4.4-1.27-1Zm17.52,8.24.75-1.24,3.19,1.93-1.75,2.92a4.68,4.68,0,0,1-1.83,0,5.66,5.66,0,0,1-2-.74,4.58,4.58,0,0,1-1.72-1.69,3.58,3.58,0,0,1-.46-2.16,5.18,5.18,0,0,1,.74-2.21,5,5,0,0,1,1.71-1.76,3.82,3.82,0,0,1,2.23-.52,4.45,4.45,0,0,1,2,.69,4.13,4.13,0,0,1,1.8,1.86,3.06,3.06,0,0,1,0,2.19l-1.64-.61a1.79,1.79,0,0,0-.07-1.21,2.07,2.07,0,0,0-.88-1,2.35,2.35,0,0,0-1.92-.31,3,3,0,0,0-1.67,1.49,3.4,3.4,0,0,0-.6,2.31,2.3,2.3,0,0,0,1.13,1.57,3.29,3.29,0,0,0,1.05.38,3.91,3.91,0,0,0,1.07,0l.56-.94-1.7-1Zm3,5.24,3.63-7.77L149,249l-.62,1.31-4.19-1.95-.8,1.72,3.9,1.82-.61,1.31-3.9-1.82-1,2.11,4.34,2-.61,1.31-5.91-2.76Zm7.31,3.2,3.21-7.95,1.56.63,1.11,6.63,2.14-5.31,1.5.6-3.22,7.95-1.61-.65-1.11-6.48-2.09,5.18-1.49-.6Zm8.06,3.14,2.37-8.24,6.11,1.75-.4,1.4-4.45-1.28-.52,1.83,4.13,1.19-.39,1.38-4.14-1.18-.64,2.24,4.6,1.32-.4,1.39-6.27-1.8Zm7.76,2,2.08-8.32,3.54.88a6.2,6.2,0,0,1,1.88.71,2,2,0,0,1,.77,1,2.46,2.46,0,0,1,0,1.4,2.32,2.32,0,0,1-.93,1.41,2.8,2.8,0,0,1-1.84.36,4.27,4.27,0,0,1,.73.92,10.11,10.11,0,0,1,.61,1.59l.62,1.88-2-.51-.77-2.11a11.92,11.92,0,0,0-.58-1.44,1.24,1.24,0,0,0-.42-.48,3.12,3.12,0,0,0-.82-.3l-.34-.08-.86,3.47-1.69-.42Zm2.88-4.38,1.25.31a6.37,6.37,0,0,0,1.53.27.94.94,0,0,0,.56-.23,1.22,1.22,0,0,0,.33-.58,1,1,0,0,0-.06-.74,1.05,1.05,0,0,0-.55-.48c-.13-.05-.54-.17-1.22-.34l-1.31-.32-.53,2.11Zm13.23,7.37-1.87-.23-.51-2-3.4-.42-.94,1.85-1.82-.23,4.36-8.1,1.81.22,2.37,8.93Zm-2.75-3.75-.79-3.3-1.54,3,2.33.29Zm3.77,3.74.74-8.47,1.73.15-.62,7,4.29.38-.13,1.44-6-.53Zm12.85-8,3.42-.3a10.53,10.53,0,0,1,1.52,0,2.1,2.1,0,0,1,1.63.93,1.84,1.84,0,0,1,.35,1,2,2,0,0,1-.22,1.13,2,2,0,0,1-.81.83,2.27,2.27,0,0,1,1.26.67,2.07,2.07,0,0,1,.54,1.25,2.73,2.73,0,0,1-.17,1.16,2.22,2.22,0,0,1-.67.94,2.37,2.37,0,0,1-1.12.51c-.28.06-1,.14-2.07.24l-2.91.26-.75-8.55Zm1.85,1.27.17,2,1.13-.1a12.56,12.56,0,0,0,1.25-.14,1.12,1.12,0,0,0,.67-.36.93.93,0,0,0,.2-.7,1,1,0,0,0-.28-.62,1,1,0,0,0-.67-.24c-.17,0-.67,0-1.48.1l-1,.08Zm.3,3.4.2,2.28,1.59-.14a7.28,7.28,0,0,0,1.18-.15,1,1,0,0,0,.78-1.14,1.11,1.11,0,0,0-.25-.64,1,1,0,0,0-.57-.34,5.84,5.84,0,0,0-1.54,0l-1.39.12Zm7.24,3.13-1-8.51,6.31-.78.17,1.44L203,258l.23,1.88,4.28-.52.17,1.43-4.27.52.28,2.32,4.76-.58.17,1.43-6.47.8Zm8-1L208,256l1.64-.41,4.79,4.71-1.39-5.56,1.57-.39,2.07,8.32-1.69.42-4.7-4.59,1.35,5.43-1.56.39Zm8.39-2.06L216.12,254l6.11-1.75.4,1.4-4.44,1.27.52,1.83,4.14-1.19.4,1.39-4.14,1.19.64,2.24,4.61-1.32.39,1.39-6.26,1.8Zm10.22-3.3-6.05-6.81,1.74-.7,4.39,5.07-.43-6.67,1.7-.69.37,9.1-1.72.7Zm3.36-5.79a5.35,5.35,0,0,1-.57-2.16,3.91,3.91,0,0,1,.22-1.4,3.37,3.37,0,0,1,.68-1.17,4.83,4.83,0,0,1,1.53-1.09,4.05,4.05,0,0,1,3.25-.22,5.27,5.27,0,0,1,2.76,5.91,4,4,0,0,1-2.24,2.34,4.06,4.06,0,0,1-3.25.23,4.48,4.48,0,0,1-2.38-2.44Zm1.59-.81a3.24,3.24,0,0,0,1.55,1.72,2.31,2.31,0,0,0,3.09-1.44,3.27,3.27,0,0,0-.35-2.3,3.2,3.2,0,0,0-1.51-1.72,2.19,2.19,0,0,0-1.87.06,2.24,2.24,0,0,0-1.25,1.4,3.2,3.2,0,0,0,.34,2.28Zm9,.56-4.38-7.29,1.49-.89,3.63,6.05,3.69-2.22.75,1.24-5.18,3.11Zm6.19-3.71-4.67-7.2,5.33-3.46.79,1.22-3.88,2.52,1,1.59,3.61-2.34.79,1.21-3.61,2.34,1.27,2,4-2.61.79,1.21-5.47,3.56Zm6.75-4.4-5.4-6.67L251.5,237l6.33,2.25-3.6-4.45,1.25-1,5.4,6.67-1.36,1.09-6.2-2.17,3.52,4.35-1.25,1Zm8.12-6.71L259,232.77l-1.89,1.7-1-1.08,5.06-4.56,1,1.08-1.88,1.7L265,236.9l-1.29,1.16Zm2.28-14,1.13-1.31,3.51,3a9.65,9.65,0,0,0,1.12.89,1.35,1.35,0,0,0,1,.16,1.83,1.83,0,0,0,1-.66,1.73,1.73,0,0,0,.5-1,1.21,1.21,0,0,0-.27-.83,8.07,8.07,0,0,0-1-1l-3.58-3.11,1.14-1.31,3.4,3a10.94,10.94,0,0,1,1.55,1.54,2.49,2.49,0,0,1,.48,1.1,2.64,2.64,0,0,1-.14,1.22,4.34,4.34,0,0,1-.88,1.41,4.69,4.69,0,0,1-1.44,1.22,2.63,2.63,0,0,1-1.21.28,2.46,2.46,0,0,1-1-.26,10.6,10.6,0,0,1-1.75-1.3l-3.45-3Zm12.07-.92-7-4.92,1-1.38,6.7.41L274,214l.93-1.31,7,4.91L281,219l-6.56-.38,4.58,3.21-.92,1.32Zm5-7-7.27-4.54.92-1.47,7.27,4.55-.92,1.46Zm-1.87-4.45a5.3,5.3,0,0,1-1.74-1.41,4,4,0,0,1-.64-1.26,3.34,3.34,0,0,1-.14-1.35,4.69,4.69,0,0,1,.6-1.78,4,4,0,0,1,2.5-2.08,5.27,5.27,0,0,1,5.71,3.15,4.52,4.52,0,0,1-2.94,5.31,4.43,4.43,0,0,1-3.35-.58Zm.81-1.58a3.21,3.21,0,0,0,2.26.48,2.2,2.2,0,0,0,1.48-1.13,2.16,2.16,0,0,0,.17-1.85,4.11,4.11,0,0,0-3.87-2.17,2.39,2.39,0,0,0-1.66,3,3.28,3.28,0,0,0,1.62,1.65Zm7.64-4.87-7.83-3.48.69-1.54,6.65-.88L283.9,197l.66-1.47,7.83,3.49-.71,1.59-6.51.88,5.11,2.27-.66,1.47Z" transform="translate(-69.91 -33.85)"/><path class="cls-3" d="M105.05,98.18l-1.13,2-2.48-.39-2,3.56,1.6,1.9-1.1,1.91L93,98.51l1.1-1.91,11,1.58Zm-5.44,1.28-4-.68,2.62,3.11,1.4-2.43Zm6.1-2.24-8.32-6L100,87.63a7.54,7.54,0,0,1,1.63-1.78,2.42,2.42,0,0,1,1.5-.39,3.1,3.1,0,0,1,1.58.59,2.85,2.85,0,0,1,1.15,1.68,3.34,3.34,0,0,1-.43,2.2,4.63,4.63,0,0,1,1.35-.39,12,12,0,0,1,2.05,0l2.36.16-1.46,2-2.7-.1a13.35,13.35,0,0,0-1.86,0,1.58,1.58,0,0,0-.72.25,3.56,3.56,0,0,0-.71.78l-.24.34,3.47,2.52-1.22,1.69ZM102.13,92l.9-1.24a8.05,8.05,0,0,0,1-1.59,1.11,1.11,0,0,0,0-.72,1.35,1.35,0,0,0-.5-.63,1.16,1.16,0,0,0-1.63.13c-.12.12-.43.53-.92,1.21l-1,1.31L102.13,92Zm9.7-3.08-7.77-6.75,2-2.35,6.53,3.2-4.09-6,2-2.35,7.77,6.75-1.27,1.46L111,77.6l4.77,6.86L114.43,86,107,82.19l6.11,5.31L111.83,89Zm7.94-9-6.62-7.88L119,67.21l1.12,1.34-4.25,3.57,1.46,1.74,4-3.32,1.11,1.33-4,3.32,1.8,2.15,4.41-3.7L125.76,75l-6,5Zm7.36-6.26-5.9-8.43,1.65-1.16,7.39,3.21-3.94-5.63,1.58-1.11,5.91,8.43-1.71,1.2-7.25-3.12,3.85,5.5-1.58,1.11Zm8.47-5.95-5.45-8.73,1.76-1.1,5.45,8.73-1.76,1.1Zm11.64-6.47-2,1-1.86-1.68-3.67,1.87L140,65l-2,1-1.1-11,2-1,8.34,7.3ZM142,59.43l-3-2.76.49,4L142,59.43Zm6.13,1.31-3.68-9.61,1.88-.72,6.4,4.91-2.46-6.42,1.8-.69,3.69,9.6-1.95.75-6.28-4.78,2.41,6.27-1.81.69Zm19.95-6.48-5.9-9.2,2.2-.51,4.25,6.84.74-8,2.14-.49-1.27,10.85-2.16.5ZM174.91,53l-1.25-10.21,2.06-.25L177,52.7l-2.06.25Zm3.92-.53-.71-10.26,4.36-.31a8,8,0,0,1,2.41.11,2.36,2.36,0,0,1,1.26.9,2.91,2.91,0,0,1,.56,1.59,2.73,2.73,0,0,1-.54,2,3.32,3.32,0,0,1-2,1.09,4.77,4.77,0,0,1,1.17.78,11.15,11.15,0,0,1,1.3,1.58l1.39,1.92-2.47.17-1.66-2.13a15.64,15.64,0,0,0-1.2-1.43,1.56,1.56,0,0,0-.65-.38A3.28,3.28,0,0,0,181,48l-.42,0,.3,4.29-2.08.14Zm1.67-6.07,1.53-.1a7.94,7.94,0,0,0,1.85-.26,1.11,1.11,0,0,0,.55-.47,1.34,1.34,0,0,0,.16-.79,1.21,1.21,0,0,0-.34-.81,1.26,1.26,0,0,0-.81-.35c-.17,0-.67,0-1.51.07l-1.62.11.19,2.6Zm11,5.49.15-8.55-3.06,0,0-1.74,8.17.14,0,1.74-3-.05-.15,8.54-2.08,0Zm7.7-10,2.06.25-.68,5.53a13.15,13.15,0,0,0-.14,1.72,1.67,1.67,0,0,0,.51,1.08,2.17,2.17,0,0,0,1.32.55,2.14,2.14,0,0,0,1.37-.2,1.42,1.42,0,0,0,.64-.81,12.6,12.6,0,0,0,.3-1.73l.7-5.65,2.06.25-.66,5.37a13.17,13.17,0,0,1-.49,2.58,2.86,2.86,0,0,1-.77,1.2,3.24,3.24,0,0,1-1.3.69,5.39,5.39,0,0,1-2,.07,5.79,5.79,0,0,1-2.17-.61,3.19,3.19,0,0,1-1.09-1,2.83,2.83,0,0,1-.44-1.2,12.83,12.83,0,0,1,.12-2.62l.67-5.44Zm18.16,13.7-2.2-.51-.35-2.48-4-.93-1.35,2.09-2.15-.49,6.22-9.13,2.14.5,1.7,10.95Zm-2.81-4.83-.53-4-2.21,3.41,2.74.63Zm3.89,5.15,3.15-9.71,2,.64L221,54.85l4.91,1.6-.53,1.65-6.89-2.24Zm19.41,3.77,1.5,1.49a4.5,4.5,0,0,1-2.51,1.53,4.33,4.33,0,0,1-2.8-.52,4.41,4.41,0,0,1-2.37-2.77,5.38,5.38,0,0,1,.56-4,5.66,5.66,0,0,1,3-3,4.57,4.57,0,0,1,3.75.32,4.32,4.32,0,0,1,2.23,2.39,4.09,4.09,0,0,1,.08,2.17l-2.06-.5a2.13,2.13,0,0,0-1.15-2.52,2.31,2.31,0,0,0-2-.11,4,4,0,0,0-1.84,2,4.29,4.29,0,0,0-.63,2.8,2.27,2.27,0,0,0,1.24,1.56,2.11,2.11,0,0,0,1.51.18,3,3,0,0,0,1.52-1.09Zm3.94.53a6.52,6.52,0,0,1,1.79-2,5.2,5.2,0,0,1,1.56-.69,4.28,4.28,0,0,1,1.62-.08,5.58,5.58,0,0,1,2.1.84,4.82,4.82,0,0,1,2.34,3.12A6.3,6.3,0,0,1,247.09,68a5.43,5.43,0,0,1-6.17-3.85,5.32,5.32,0,0,1,.9-4Zm1.85,1.08a3.83,3.83,0,0,0-.72,2.67,2.63,2.63,0,0,0,1.26,1.85,2.58,2.58,0,0,0,2.2.32,3.89,3.89,0,0,0,2.1-1.85,3.84,3.84,0,0,0,.74-2.65,2.87,2.87,0,0,0-3.51-2.18,3.89,3.89,0,0,0-2.07,1.84Zm5.25,9.62,6.28-8,1.64,1.28-5.22,6.68L255.69,74l-1.06,1.37-5.71-4.46Zm7,5.39,7-7.47,1.52,1.42-5.78,6.2,3.78,3.52-1.18,1.27-5.3-4.94Zm6.36,5.93L270,75.43l5,5.76-1.31,1.14-3.64-4.19-1.72,1.5,3.39,3.9-1.31,1.13-3.39-3.9L265,82.61,268.72,87l-1.31,1.14-5.14-5.91Zm12.23,8.75,1.41-1,2.63,3.62-3.32,2.41a5.46,5.46,0,0,1-2-.87,7,7,0,0,1-1.87-1.75,5.58,5.58,0,0,1-1.1-2.68,4.27,4.27,0,0,1,.5-2.59,6.34,6.34,0,0,1,1.87-2.1,5.94,5.94,0,0,1,2.71-1.14,4.55,4.55,0,0,1,2.7.47A5.32,5.32,0,0,1,279.89,87a5,5,0,0,1,1.11,2.9,3.68,3.68,0,0,1-1,2.43l-1.52-1.45a2.24,2.24,0,0,0,.49-1.36,2.48,2.48,0,0,0-.53-1.47,2.81,2.81,0,0,0-2-1.25,3.66,3.66,0,0,0-2.55.86,4.06,4.06,0,0,0-1.74,2.27,2.73,2.73,0,0,0,.51,2.27,3.73,3.73,0,0,0,1,.91,4.46,4.46,0,0,0,1.16.54l1.06-.76-1.4-1.93Zm.62,7.47L284,93.25l3.81,6.61-1.51.87-2.77-4.81-2,1.14,2.59,4.48-1.5.86-2.59-4.47-2.42,1.4,2.87,5-1.5.86-3.91-6.77Z" transform="translate(-69.91 -33.85)"/><polygon class="cls-1" points="220.01 74.57 222.56 80.5 228.99 79.88 224.13 84.14 226.71 90.06 221.16 86.76 216.32 91.03 217.75 84.74 212.19 81.46 218.61 80.87 220.01 74.57 220.01 74.57"/><polygon class="cls-1" points="219.7 138.34 224.69 142.44 230.12 138.95 227.76 144.95 232.76 149.03 226.32 148.65 223.99 154.67 222.36 148.42 215.92 148.06 221.35 144.59 219.7 138.34 219.7 138.34"/><polygon class="cls-1" points="20.17 74.57 17.62 80.5 11.19 79.88 16.05 84.14 13.47 90.06 19.02 86.76 23.86 91.03 22.43 84.74 27.99 81.46 21.57 80.87 20.17 74.57 20.17 74.57"/><path class="cls-4" d="M154.57,151.43H125.66l-6.15,11.74c-1.59,3.08-2.43,5.25-2.56,6.54a3.54,3.54,0,0,0,1.28,3.06,9.48,9.48,0,0,0,2.55,1.22l1.78.33h2.53l-.2,2H101.45l.2-2c3-.56,5.08-1.27,6.26-2.15q2.58-2.19,7.29-10.7l32.47-61.26h1.91l19.58,61.91q2.35,7.49,4.66,9.73a8.57,8.57,0,0,0,3,1.82,11.26,11.26,0,0,0,3.94.65l-.21,2H151.12l.21-2a14,14,0,0,0,3.38-.28l1.64-.49a3.4,3.4,0,0,0,1.13-.71,4.33,4.33,0,0,0,1.9-3.09c.17-1.61-.3-4.16-1.39-7.64l-3.42-10.68Zm-1.18-4.07-9.51-30.09-16.06,30.09Z" transform="translate(-69.91 -33.85)"/><path class="cls-5" d="M232.21,101.9l-.21,2a13,13,0,0,0-6.25,2.53q-2.92,2.43-6,8.25L187.3,178.05h-2L164,113.87a46.14,46.14,0,0,0-2.42-6,8,8,0,0,0-1.39-1.55,8.15,8.15,0,0,0-1.73-1.09,17.73,17.73,0,0,0-5.25-1.28l.21-2h30.41l-.21,2c-3.44.34-5.73.92-6.85,1.77a4.48,4.48,0,0,0-1.9,3.24c-.2,1.91.35,4.76,1.65,8.58L191,161.22l22-43.17q3.24-6.49,3.49-8.84a3.74,3.74,0,0,0-1.17-2.87c-.86-.94-2.62-1.68-5.28-2.25l-.92-.17.21-2Z" transform="translate(-69.91 -33.85)"/><path class="cls-6" d="M261,100.21l-.91,25.3h-1.68q-2.16-11.36-8-16.36t-14.7-5A26.52,26.52,0,0,0,222,107.84q-6.22,3.69-10.58,12t-5.62,20.52l-.34,5a13.61,13.61,0,0,0-.07,2c0,.64.11,1.46.21,2.49a36,36,0,0,0,1.65,8.08,21,21,0,0,0,8.58,11.35,25.84,25.84,0,0,0,14.43,4,27.61,27.61,0,0,0,13.14-3.09q5.85-3.12,13.42-12.33l1.59,1.1q-6.6,9.87-14.52,14.5a35.28,35.28,0,0,1-18.22,4.65q-18.46,0-27.27-13.71-6.51-10.23-5.11-24.05a46.21,46.21,0,0,1,7-20.29,42.24,42.24,0,0,1,15.26-14.54,39.72,39.72,0,0,1,19.69-5.25,33.42,33.42,0,0,1,15.52,4,11.86,11.86,0,0,0,3.18,1.2,4,4,0,0,0,2.69-1,11.32,11.32,0,0,0,2.45-4.13Z" transform="translate(-69.91 -33.85)"/><path class="cls-5" d="M213.6,126.71l-26.3,51.34h-2L164,113.88a45.87,45.87,0,0,0-2.42-6,7.46,7.46,0,0,0-3.12-2.64,17.48,17.48,0,0,0-5.25-1.27l.21-2h30.41l-.2,2c-3.45.33-5.74.91-6.86,1.76a4.48,4.48,0,0,0-1.9,3.24c-.2,1.91.35,4.76,1.65,8.58L191,161.23l19.3-37.92,3.35,3.4Z" transform="translate(-69.91 -33.85)"/><path class="cls-7" d="M131.57,229c-8.5-8-14.19-14.54-13.59-20.34.35-3.32,3.94-6.61,7.9-5.43-.21-11.78-15.47-25.91-27.76-23.56,9.62,5.66,10.3,17.68,14,27.68,3,8.08,11,15.49,19.44,21.65Z" transform="translate(-69.91 -33.85)"/><path class="cls-7" d="M160.19,243.89c-11.58-7.34-20.39-11.56-18.27-21.95,1.6-7.84-10.36-12.94-12.39-3.24-1.48,7.08,18.05,21.34,30.66,25.19Z" transform="translate(-69.91 -33.85)"/><path class="cls-7" d="M172.76,247.27c-5.39-4.29-3.48-6.33-3.14-12.51.36-6.57-7.58-6.88-8.11-1.7-.4,3.83,3.13,10.45,11.25,14.21Z" transform="translate(-69.91 -33.85)"/><path class="cls-7" d="M178.51,237.64c-.37-6.48-6.83-6.8-8.46-6.08.67,3.05-1.49,8.42-.29,11.19a5.53,5.53,0,0,1,8.75-5.11Z" transform="translate(-69.91 -33.85)"/><path class="cls-7" d="M170.54,246.51c-5.81-4-9.88-8.55-9.41-15.1.52-7.19-8.65-7.7-8.27-.6.25,4.56,9.13,12.87,17.68,15.7Z" transform="translate(-69.91 -33.85)"/><path class="cls-7" d="M166.49,245.51c-6.79-4.74-14-9-14.3-17.21-.28-8.59-10.36-9.07-10.3-1.92.05,6.39,13.73,16,24.6,19.13Z" transform="translate(-69.91 -33.85)"/><path class="cls-7" d="M147.93,238.82c-13.11-9-22.32-16-17.43-24.55,5-8.74-8-15-11.71-7.29-3.48,7.12,11.35,23.21,29.14,31.84Z" transform="translate(-69.91 -33.85)"/><path class="cls-7" d="M248.43,229c8.5-8,14.19-14.54,13.59-20.34-.35-3.32-3.94-6.61-7.9-5.43.21-11.78,15.47-25.91,27.76-23.56-9.62,5.66-10.3,17.68-14,27.68-3,8.08-11,15.49-19.44,21.65Z" transform="translate(-69.91 -33.85)"/><path class="cls-7" d="M219.81,243.89c11.58-7.34,20.39-11.56,18.27-21.95-1.6-7.84,10.36-12.94,12.39-3.24,1.48,7.08-18.05,21.34-30.66,25.19Z" transform="translate(-69.91 -33.85)"/><path class="cls-7" d="M207.24,247.27c5.39-4.29,3.48-6.33,3.14-12.51-.36-6.57,7.58-6.88,8.11-1.7.4,3.83-3.13,10.45-11.25,14.21Z" transform="translate(-69.91 -33.85)"/><path class="cls-7" d="M201.49,237.64c.37-6.48,6.83-6.8,8.46-6.08-.67,3.05,1.49,8.42.29,11.19a5.53,5.53,0,0,0-8.75-5.11Z" transform="translate(-69.91 -33.85)"/><path class="cls-7" d="M209.46,246.51c5.81-4,9.88-8.55,9.41-15.1-.52-7.19,8.65-7.7,8.27-.6-.25,4.56-9.12,12.87-17.68,15.7Z" transform="translate(-69.91 -33.85)"/><path class="cls-7" d="M213.51,245.51c6.79-4.74,14-9,14.3-17.21.28-8.59,10.36-9.07,10.3-1.92-.05,6.39-13.73,16-24.6,19.13Z" transform="translate(-69.91 -33.85)"/><path class="cls-7" d="M232.07,238.82c13.11-9,22.32-16,17.43-24.55-5-8.74,7.95-15,11.71-7.29,3.48,7.12-11.35,23.21-29.14,31.84Z" transform="translate(-69.91 -33.85)"/><path class="cls-8" d="M204.47,237.54a4.88,4.88,0,0,1,.92,9.67h0a81.06,81.06,0,0,1-30.54,0h0a4.88,4.88,0,1,1,4.67-7.91c7.94,9.3,14.36,9.28,21,.25h0a4.86,4.86,0,0,1,3.95-2Z" transform="translate(-69.91 -33.85)"/><path class="cls-9" d="M248.28,206.49,230.7,190.35c-12.06,5.86-33.21-18.94-40.59,4.74,0-.13-.07-.25-.11-.38l-.12.38c-7.37-23.68-28.53,1.12-40.59-4.74l-17.57,16.14,1.47,1.48c14.83,11.59,47.61-17.29,56.69,9.41l.12-.33.11.33c9.09-26.7,41.87,2.18,56.69-9.41.92-.61,1.34-1.62,1.48-1.48Zm-59.19-10.92c-7.46-21.13-27.75.12-39.14-3.79l-16.83,15.3c9.44,11.87,50.28-16,55.3,3.56l.67-15.07Zm1.81,0c7.47-21.13,27.76.12,39.14-3.79l16.83,15.3c-9.43,11.87-50.27-16-55.3,3.56l-.67-15.07Z" transform="translate(-69.91 -33.85)"/><path class="cls-9" d="M133.27,212c-2.71.58-10.5,8-4.72,8h34.72c-22.79-.53-36.45-2.58-30-8Z" transform="translate(-69.91 -33.85)"/><path class="cls-9" d="M246.73,212c2.71.58,10.5,8,4.72,8H216.73c22.79-.53,36.45-2.58,30-8Z" transform="translate(-69.91 -33.85)"/><path class="cls-10" d="M188.46,229.1c-.26-.3,2,9.36-6.35,13.4-4.21,2-8.85-1.07-9.54-5a7.09,7.09,0,0,1,2.57-6.75c3.52,1.39,8.93,1.06,13.32-1.64Z" transform="translate(-69.91 -33.85)"/><path class="cls-10" d="M188.27,228.9c.13-.38-7.08,6.44-14.78,1.19-3.86-2.63-3.49-8.19-.43-10.76a7.09,7.09,0,0,1,7.13-1.15c.55,3.74,3.55,8.26,8.08,10.72Z" transform="translate(-69.91 -33.85)"/><path class="cls-10" d="M188.26,228.67c.39-.08-9.12-2.91-8.43-12.21.35-4.66,5.36-7.12,9.11-5.75a7.08,7.08,0,0,1,4.56,5.6c-3,2.35-5.38,7.21-5.24,12.36Z" transform="translate(-69.91 -33.85)"/><path class="cls-10" d="M188.64,228.72c.26.3-2-9.36,6.35-13.4,4.21-2,8.85,1.07,9.54,5a7.1,7.1,0,0,1-2.57,6.75c-3.52-1.4-8.93-1.06-13.32,1.64Z" transform="translate(-69.91 -33.85)"/><path class="cls-10" d="M188.81,228.8c-.13.38,7.09-6.44,14.79-1.19,3.86,2.63,3.49,8.19.43,10.76a7.1,7.1,0,0,1-7.14,1.15c-.55-3.74-3.54-8.26-8.08-10.72Z" transform="translate(-69.91 -33.85)"/><path class="cls-10" d="M188.89,229.24c-.39.07,9.12,2.91,8.43,12.2-.35,4.67-5.36,7.13-9.11,5.76a7.11,7.11,0,0,1-4.56-5.61c3-2.35,5.38-7.2,5.24-12.35Z" transform="translate(-69.91 -33.85)"/><path class="cls-11" d="M176.15,94.6h-2.09l-2-5.31h-7.2l-2,5.31h-2L168.56,75Zm-4.81-7.25-2.81-7.48-2.87,7.48Z" transform="translate(-69.91 -33.85)"/><path class="cls-11" d="M192.52,85.67a10.52,10.52,0,0,1-1,4.94,7.93,7.93,0,0,1-2.95,3.13,7.61,7.61,0,0,1-4.06,1.16,7.92,7.92,0,0,1-6.09-2.83,10.4,10.4,0,0,1,0-13.69,8.25,8.25,0,0,1,6.33-2.82c2.61,0,4.95,1.36,7,4.07L190.39,81c-1.59-2.34-3.46-3.51-5.63-3.51a6.47,6.47,0,0,0-5,2.24,8.37,8.37,0,0,0,0,10.92,6.28,6.28,0,0,0,4.85,2.25,5.59,5.59,0,0,0,3-.9,6.26,6.26,0,0,0,2.22-2.27,6.16,6.16,0,0,0,.68-2.64h-5V85.19h7Z" transform="translate(-69.91 -33.85)"/><path class="cls-11" d="M204.93,89.32a5.12,5.12,0,0,1-1.69,4,5.94,5.94,0,0,1-4.07,1.27H195V75.87H198a5.53,5.53,0,0,1,3.82,1.18,5,5,0,0,1,1.57,3.87,4.39,4.39,0,0,1-1.67,3.65,4.37,4.37,0,0,1,2.34,1.74A5.34,5.34,0,0,1,204.93,89.32Zm-3.39-8.4c0-2.07-1.07-3.11-3.23-3.11h-1.47v6.31h1.42C200.45,84.12,201.54,83.06,201.54,80.92Zm1.52,8.31a3,3,0,0,0-1.42-2.75,5.67,5.67,0,0,0-2.89-.59h-1.91v6.77H199a4.31,4.31,0,0,0,3-.82A3.32,3.32,0,0,0,203.06,89.23Z" transform="translate(-69.91 -33.85)"/><path class="cls-11" d="M219.37,87.91a7.69,7.69,0,0,1-1.11,4.44,5.93,5.93,0,0,1-9.79,0,7.69,7.69,0,0,1-1.11-4.44v-12h1.87V87.35a8.16,8.16,0,0,0,.56,3.6,3.68,3.68,0,0,0,1.49,1.46,4.29,4.29,0,0,0,2.1.56,4.24,4.24,0,0,0,2.07-.56A3.68,3.68,0,0,0,216.94,91a8,8,0,0,0,.56-3.6V75.87h1.87Z" transform="translate(-69.91 -33.85)"/></svg>